<svg xmlns="http://www.w3.org/2000/svg" viewBox="0 0 21 23"><path d="M20.52 9.6c0 5.52-4.48 10-10 10s-10-4.48-10-10l9.88-.02 10.12.02Z"/><circle cx="10.63" cy="9.29" r="8.99" style="fill:#f7bc00"/><path d="M19.25 7.7s-1.12-6.2-8.59-6.18S2.08 7.7 2.08 7.7C2.8 3.24 6.28.85 10.66.85s7.79 2.5 8.59 6.85Z" style="fill:#ffe18d"/><path d="M19.25 10.96s-1.12 6.2-8.59 6.18-8.58-6.18-8.58-6.18c-.03 3.26 3.66 7.17 8.55 7.17 4.57 0 8.26-3.26 8.62-7.17Z" style="fill:#e5aa03"/><path d="M10.54 22.91c.55 0 .99-.44.99-.99v-2.5H9.55v2.5c0 .55.44.99.99.99Z"/><circle cx="10.61" cy="9.56" r="1"/><path d="M15.16 9.56s-2.07 2.18-4.62 2.18-4.62-2.18-4.62-2.18 2.07-2.18 4.62-2.18 4.62 2.18 4.62 2.18Z" style="fill:none;stroke:#000;stroke-miterlimit:10;stroke-width:.75px"/><path d="M5.83 10.06c-1.29-.24-2.8-.45-3.65.8.57-1.52 2.3-1.72 3.71-1.8l-.06 1ZM15.24 9.18l3.2.38-3.2.37v-.75z"/></svg>